# xmcd
#
# Track frame offsets:
#	150
#	13071
#	25910
#	41580
#	55502
#	73888
#	79733
#	94495
#	109879
#	126691
#	146906
#
# Disc length: 2098 seconds
#
# Revision: 0
# Processed by: cddbd v1.5.2PL0 Copyright (c) Steve Scherf et al.
# Submitted via: dBpowerAMP V4.0
#
DISCID=a308300b
DTITLE=Commander Coody - Flying Dreams
DYEAR=1978
DGENRE=Blues
TTITLE0=Thank You Lone Ranger
TTITLE1=Cry Baby Cry
TTITLE2=He´s In Love
TTITLE3=Life is A Carneval
TTITLE4=Talent Night at the Nashville Inn
TTITLE5=Flying Dreams
TTITLE6=Dreams of Barbarella
TTITLE7=Vampira
TTITLE8=Take the fifth Amendment
TTITLE9=Stranger in a Strange Land
TTITLE10=My Day
EXTD=Rarity !!!
EXTT0=
EXTT1=
EXTT2=
EXTT3=
EXTT4=
EXTT5=
EXTT6=
EXTT7=
EXTT8=
EXTT9=
EXTT10=
PLAYORDER=
